<svg width="48" height="48" viewBox="0 0 48 48" fill="none" xmlns="http://www.w3.org/2000/svg">
  <rect width="48" height="48" rx="12" fill="#181717"/>
  <path d="M24 14C18.477 14 14 18.477 14 24C14 28.865 17.289 33.032 21.75 34.315C22.297 34.393 22.533 34.061 22.533 33.772C22.533 33.517 22.519 32.651 22.513 31.575C18.869 32.292 18.125 29.847 18.125 29.847C17.688 28.564 16.969 28.2 16.969 28.2C15.953 27.519 17.031 27.533 17.031 27.533C18.141 27.604 18.688 28.659 18.688 28.659C19.688 30.345 21.234 29.89 21.844 29.625C21.922 28.924 22.234 28.45 22.578 28.168C19.359 27.88 15.969 26.8 15.969 19.25C15.969 17.016 16.734 15.119 18.078 13.617C17.969 13.328 17.25 12.156 18.188 10.562C18.188 10.562 19.391 10.25 22.5 12.099C23.656 11.845 24.875 11.736 26.094 11.736C27.313 11.736 28.531 11.845 29.688 12.099C32.797 10.25 34 10.562 34 10.562C34.938 12.156 34.219 13.328 34.109 13.617C35.453 15.119 36.219 17.016 36.219 19.25C36.219 26.812 32.828 27.875 29.609 28.162C29.984 28.534 30.313 29.275 30.313 30.362C30.313 32.084 30.297 33.48 30.297 33.772C30.297 34.064 30.531 34.402 31.078 34.314C35.539 33.031 38.828 28.864 38.828 24C38.828 18.477 34.351 14 28.828 14H24Z" fill="white"/>
</svg>