<svg width="48" height="48" viewBox="0 0 48 48" fill="none" xmlns="http://www.w3.org/2000/svg">
  <rect width="48" height="48" rx="12" fill="#E1306C"/>
  <path d="M33.5 14H14.5C12.567 14 11 15.567 11 17.5V30.5C11 32.433 12.567 34 14.5 34H33.5C35.433 34 37 32.433 37 30.5V17.5C37 15.567 35.433 14 33.5 14ZM24 27.5C20.962 27.5 18.5 25.038 18.5 22C18.5 18.962 20.962 16.5 24 16.5C27.038 16.5 29.5 18.962 29.5 22C29.5 25.038 27.038 27.5 24 27.5ZM31.5 17.5C30.672 17.5 30 16.828 30 16C30 15.172 30.672 14.5 31.5 14.5C32.328 14.5 33 15.172 33 16C33 16.828 32.328 17.5 31.5 17.5Z" fill="white"/>
</svg>