<svg width="48" height="48" viewBox="0 0 48 48" fill="none" xmlns="http://www.w3.org/2000/svg">
  <rect width="48" height="48" rx="12" fill="#0A66C2"/>
  <path d="M17 31V19H12V31H17ZM14.5 17.5C16.433 17.5 18 15.933 18 14C18 12.067 16.433 10.5 14.5 10.5C12.567 10.5 11 12.067 11 14C11 15.933 12.567 17.5 14.5 17.5ZM36 31V24.5C36 21.5 33.5 20 31.5 20C29.833 20 28.5 21 27.833 21.917V19H23.5C23.583 20.167 23.5 31 23.5 31H27.833V24.917C27.833 23.5 28.333 22.333 29.917 22.333C31.5 22.333 31.667 23.917 31.667 25.083V31H36Z" fill="white"/>
</svg>